<svg fill="#000000" xmlns="http://www.w3.org/2000/svg"  viewBox="0 0 64 64" width="64px" height="64px"><path d="M 15 4 C 8.933594 4 4 8.933594 4 15 L 4 49 C 4 51.476563 4.832031 53.753906 6.21875 55.59375 C 6.246094 55.636719 6.273438 55.683594 6.308594 55.71875 C 8.324219 58.316406 11.464844 60 15 60 L 49 60 C 52.535156 60 55.675781 58.316406 57.6875 55.71875 C 57.726563 55.683594 57.75 55.636719 57.78125 55.59375 C 59.167969 53.753906 60 51.476563 60 49 L 60 15 C 60 8.933594 55.066406 4 49 4 Z M 15 6 L 49 6 C 53.960938 6 58 10.035156 58 15 L 58 49 C 58 50.09375 57.792969 51.136719 57.4375 52.109375 C 57.300781 52.042969 57.15625 52 57 52 C 56.449219 52 56 52.445313 56 53 L 56 54.644531 C 54.347656 56.6875 51.824219 58 49 58 L 15 58 C 12.175781 58 9.652344 56.6875 8 54.644531 L 8 53 C 8 52.445313 7.550781 52 7 52 C 6.84375 52 6.699219 52.042969 6.5625 52.109375 C 6.207031 51.136719 6 50.09375 6 49 L 6 15 C 6 10.035156 10.039063 6 15 6 Z M 15 22 C 14.449219 22 14 22.449219 14 23 L 14 24 C 14 24.550781 14.449219 25 15 25 C 15.550781 25 16 24.550781 16 24 L 16 23 C 16 22.449219 15.550781 22 15 22 Z M 26.46875 22 C 25.070313 22 23.828125 22.257813 22.761719 22.769531 C 22.621094 22.839844 22.480469 22.910156 22.339844 23 C 21.46875 23.46875 20.71875 24.089844 20.109375 24.828125 C 19.410156 25.691406 18.878906 26.691406 18.53125 27.8125 C 18.507813 27.871094 18.492188 27.941406 18.480469 28 C 18.160156 29.058594 18 30.179688 18 31.347656 C 18 31.910156 18.039063 32.460938 18.109375 33 C 18.199219 33.648438 18.339844 34.289063 18.53125 34.902344 C 18.878906 36.019531 19.410156 37.007813 20.109375 37.871094 C 20.148438 37.917969 20.191406 37.960938 20.230469 38 C 20.910156 38.789063 21.761719 39.429688 22.761719 39.921875 C 23.828125 40.429688 25.070313 40.679688 26.46875 40.679688 C 27.878906 40.679688 29.109375 40.429688 30.171875 39.921875 C 31.171875 39.429688 32.019531 38.789063 32.6875 38 C 32.730469 37.960938 32.769531 37.917969 32.8125 37.871094 C 33.519531 37.007813 34.039063 36.019531 34.402344 34.902344 C 34.589844 34.289063 34.730469 33.648438 34.8125 33 C 34.890625 32.460938 34.921875 31.910156 34.921875 31.347656 C 34.921875 30.179688 34.769531 29.058594 34.449219 28 C 34.4375 27.941406 34.421875 27.871094 34.402344 27.8125 C 34.039063 26.691406 33.519531 25.691406 32.8125 24.828125 C 32.199219 24.089844 31.460938 23.46875 30.589844 23 C 30.449219 22.910156 30.308594 22.839844 30.171875 22.769531 C 29.109375 22.257813 27.878906 22 26.46875 22 Z M 43.019531 22 C 41.757813 22 40.710938 22.191406 39.902344 22.550781 C 39.601563 22.679688 39.320313 22.828125 39.070313 23 C 38.628906 23.261719 38.269531 23.570313 37.96875 23.902344 C 37.5 24.429688 37.179688 25 37 25.597656 C 36.839844 26.199219 36.75 26.71875 36.75 27.160156 C 36.75 27.460938 36.769531 27.738281 36.820313 28 C 36.871094 28.371094 36.96875 28.699219 37.097656 29 C 37.328125 29.5 37.648438 29.917969 38.019531 30.269531 C 38.398438 30.609375 38.847656 30.890625 39.347656 31.097656 C 39.839844 31.289063 40.347656 31.460938 40.871094 31.597656 L 44.800781 32.5625 C 45.199219 32.660156 45.609375 32.78125 46.03125 32.9375 C 46.078125 32.960938 46.128906 32.980469 46.171875 33 C 46.53125 33.140625 46.859375 33.308594 47.160156 33.519531 C 47.488281 33.75 47.761719 34.027344 47.96875 34.371094 C 48.171875 34.699219 48.269531 35.101563 48.269531 35.550781 C 48.269531 36.140625 48.121094 36.660156 47.839844 37.078125 C 47.578125 37.441406 47.28125 37.75 46.921875 38 C 46.859375 38.050781 46.800781 38.089844 46.730469 38.128906 C 46.28125 38.410156 45.789063 38.609375 45.269531 38.730469 C 44.738281 38.859375 44.25 38.921875 43.8125 38.921875 C 43.019531 38.921875 42.269531 38.847656 41.578125 38.699219 C 40.929688 38.558594 40.371094 38.328125 39.902344 38 C 39.871094 37.988281 39.851563 37.96875 39.820313 37.949219 C 39.332031 37.609375 38.941406 37.148438 38.660156 36.570313 C 38.488281 36.21875 38.371094 35.808594 38.3125 35.339844 C 38.242188 34.800781 37.808594 34.390625 37.269531 34.390625 L 37.261719 34.390625 C 36.648438 34.378906 36.152344 34.898438 36.210938 35.511719 C 36.261719 36.160156 36.410156 36.738281 36.628906 37.261719 C 36.742188 37.519531 36.878906 37.769531 37.03125 38 C 37.328125 38.480469 37.699219 38.890625 38.128906 39.230469 C 38.78125 39.742188 39.570313 40.121094 40.480469 40.371094 C 41.378906 40.609375 42.371094 40.730469 43.410156 40.730469 C 44.460938 40.730469 45.371094 40.628906 46.128906 40.4375 C 46.878906 40.25 47.527344 39.988281 48.039063 39.679688 C 48.558594 39.359375 48.980469 39 49.28125 38.609375 C 49.4375 38.398438 49.570313 38.199219 49.6875 38 C 49.800781 37.808594 49.890625 37.621094 49.96875 37.4375 C 50.140625 37.050781 50.238281 36.679688 50.28125 36.339844 C 50.328125 36.011719 50.347656 35.730469 50.347656 35.519531 C 50.347656 34.769531 50.21875 34.121094 49.96875 33.589844 C 49.871094 33.378906 49.757813 33.191406 49.621094 33 C 49.429688 32.710938 49.199219 32.449219 48.929688 32.230469 C 48.5 31.859375 48 31.550781 47.429688 31.3125 C 46.859375 31.0625 46.261719 30.859375 45.628906 30.6875 L 41.339844 29.628906 C 40.980469 29.550781 40.648438 29.449219 40.347656 29.320313 C 40.039063 29.199219 39.78125 29.03125 39.550781 28.839844 C 39.320313 28.640625 39.148438 28.398438 39.019531 28.121094 C 39 28.078125 38.980469 28.039063 38.96875 28 C 38.871094 27.75 38.828125 27.46875 38.828125 27.140625 C 38.828125 26.519531 38.941406 25.988281 39.171875 25.578125 C 39.398438 25.171875 39.710938 24.828125 40.078125 24.578125 C 40.460938 24.320313 40.910156 24.128906 41.421875 24.011719 C 42.488281 23.769531 43.71875 23.761719 44.769531 24.078125 C 45.308594 24.25 45.800781 24.492188 46.210938 24.820313 C 46.632813 25.128906 46.960938 25.539063 47.21875 26.011719 C 47.359375 26.261719 47.460938 26.539063 47.539063 26.839844 C 47.648438 27.328125 48.070313 27.6875 48.570313 27.6875 L 48.578125 27.6875 C 49.25 27.679688 49.738281 27.058594 49.597656 26.402344 C 49.507813 25.96875 49.371094 25.570313 49.179688 25.210938 C 48.808594 24.5 48.320313 23.898438 47.710938 23.429688 C 47.511719 23.269531 47.300781 23.128906 47.070313 23 C 46.621094 22.730469 46.109375 22.507813 45.570313 22.359375 C 44.761719 22.121094 43.910156 22 43.019531 22 Z M 26.46875 24 C 27.570313 24 28.519531 24.191406 29.300781 24.570313 C 30.101563 24.949219 30.738281 25.449219 31.261719 26.089844 C 31.71875 26.648438 32.078125 27.28125 32.339844 28 C 32.398438 28.128906 32.449219 28.269531 32.488281 28.410156 C 32.78125 29.332031 32.921875 30.320313 32.921875 31.347656 C 32.921875 31.917969 32.878906 32.46875 32.789063 33 C 32.71875 33.449219 32.621094 33.878906 32.488281 34.300781 C 32.210938 35.191406 31.808594 35.941406 31.269531 36.597656 C 30.789063 37.167969 30.21875 37.640625 29.519531 38 C 29.449219 38.050781 29.371094 38.078125 29.300781 38.121094 C 28.519531 38.488281 27.570313 38.679688 26.46875 38.679688 C 25.371094 38.679688 24.421875 38.488281 23.628906 38.109375 C 23.5625 38.078125 23.488281 38.039063 23.421875 38 C 22.710938 37.640625 22.128906 37.167969 21.660156 36.589844 C 21.109375 35.941406 20.710938 35.179688 20.4375 34.300781 C 20.308594 33.878906 20.199219 33.449219 20.128906 33 C 20.039063 32.46875 20 31.917969 20 31.347656 C 20 30.320313 20.148438 29.332031 20.4375 28.410156 C 20.480469 28.269531 20.53125 28.128906 20.589844 28 C 20.839844 27.28125 21.199219 26.648438 21.660156 26.089844 C 22.179688 25.449219 22.832031 24.960938 23.628906 24.570313 C 24.421875 24.191406 25.371094 24 26.46875 24 Z M 15 27 C 14.449219 27 14 27.449219 14 28 L 14 39 C 14 39.550781 14.449219 40 15 40 C 15.550781 40 16 39.550781 16 39 L 16 28 C 16 27.449219 15.550781 27 15 27 Z M 12 52 C 11.449219 52 11 52.445313 11 53 L 11 55 C 11 55.554688 11.449219 56 12 56 C 12.550781 56 13 55.554688 13 55 L 13 53 C 13 52.445313 12.550781 52 12 52 Z M 17 52 C 16.449219 52 16 52.445313 16 53 L 16 55 C 16 55.554688 16.449219 56 17 56 C 17.550781 56 18 55.554688 18 55 L 18 53 C 18 52.445313 17.550781 52 17 52 Z M 22 52 C 21.449219 52 21 52.445313 21 53 L 21 55 C 21 55.554688 21.449219 56 22 56 C 22.550781 56 23 55.554688 23 55 L 23 53 C 23 52.445313 22.550781 52 22 52 Z M 27 52 C 26.449219 52 26 52.445313 26 53 L 26 55 C 26 55.554688 26.449219 56 27 56 C 27.550781 56 28 55.554688 28 55 L 28 53 C 28 52.445313 27.550781 52 27 52 Z M 32 52 C 31.449219 52 31 52.445313 31 53 L 31 55 C 31 55.554688 31.449219 56 32 56 C 32.550781 56 33 55.554688 33 55 L 33 53 C 33 52.445313 32.550781 52 32 52 Z M 37 52 C 36.449219 52 36 52.445313 36 53 L 36 55 C 36 55.554688 36.449219 56 37 56 C 37.550781 56 38 55.554688 38 55 L 38 53 C 38 52.445313 37.550781 52 37 52 Z M 42 52 C 41.449219 52 41 52.445313 41 53 L 41 55 C 41 55.554688 41.449219 56 42 56 C 42.550781 56 43 55.554688 43 55 L 43 53 C 43 52.445313 42.550781 52 42 52 Z M 47 52 C 46.449219 52 46 52.445313 46 53 L 46 55 C 46 55.554688 46.449219 56 47 56 C 47.550781 56 48 55.554688 48 55 L 48 53 C 48 52.445313 47.550781 52 47 52 Z M 52 52 C 51.449219 52 51 52.445313 51 53 L 51 55 C 51 55.554688 51.449219 56 52 56 C 52.550781 56 53 55.554688 53 55 L 53 53 C 53 52.445313 52.550781 52 52 52 Z"/></svg>